<svg id="Layer_1" data-name="Layer 1" xmlns="http://www.w3.org/2000/svg" viewBox="0 0 255.12 188.14"><defs><style>.cls-1{fill:#e30613;}.cls-2{fill:#fff;}</style></defs><path class="cls-1" d="M167.39,133.87A35.49,35.49,0,0,1,157.23,141h40.44a64.11,64.11,0,0,0,7.75-21.26H176a35.29,35.29,0,0,1-8.65,14.14m25.25-55.52,1.45-1.45a67.88,67.88,0,0,0-8.77-11.43c-25.11-25.09-63.13-27.76-88.63-2.27A64.24,64.24,0,0,0,86.6,141h40.45a35.71,35.71,0,0,1-10.16-57.6c10.87-10.86,24.68-12.2,36.61-6.31l-27.65,27.64,20.2,20.19,27-27Z" transform="translate(-14.17 -45.32)"/><path class="cls-2" d="M39.37,183.35H24.18c.78-3.58,4-5.66,7.59-5.66s6.81,2.08,7.6,5.66M49.13,190a13,13,0,0,0,.24-2.63c0-10-7.41-18.06-17.66-18.06a17.65,17.65,0,0,0,.18,35.29c7.34,0,13.12-4.58,16.09-10.93H37.54a7,7,0,0,1-5.65,2.59c-3.92,0-7.23-2.33-7.83-6.26Zm21.18-11.3h2v-9.31c-1.3,0-4.38.08-4.38.08-3.61.14-7.62,1.36-10,4.23-2.72,3.34-3,6.08-3,10.19v19.8H65V185.41c0-3.75.84-6.68,5.36-6.68M101.44,187A8.35,8.35,0,1,1,93,178.58a8.2,8.2,0,0,1,8.43,8.41m0,16.57h10V170.47h-10V174h-.12c-2-3.28-6.08-4.65-9.76-4.65-10.07,0-16.82,8-16.82,17.65,0,9.83,6.51,17.7,16.82,17.7,3.62,0,8-1.31,9.76-4.71h.12ZM127,179.47c0-1.49,1.5-2.2,2.83-2.2,1.75,0,3.07.66,3.13,2.5h9.83c-.67-7-6.15-10.43-12.84-10.43-6.45,0-13,4-13,10.91,0,4.65,4,7.21,8,8.64,1.44.54,2.89,1,4.34,1.49,1.81.72,4.52,1.44,4.52,3.82,0,1.73-2,2.56-3.5,2.56a3.47,3.47,0,0,1-3.79-3h-10c.78,7.28,6.63,11,13.62,11,6.81,0,13.62-3.81,13.62-11.26,0-11.69-16.81-8.77-16.81-14m63.69,24.25h10v-19.8c0-4.11-.31-6.85-3-10.19-2.37-2.87-6.37-4.09-10-4.23,0,0-1.26-.08-2.6-.08s-2.6.08-2.6.08a15.81,15.81,0,0,0-8,2.79,15.78,15.78,0,0,0-8-2.79s-1.26-.08-2.6-.08-2.6.08-2.6.08c-3.6.14-7.62,1.36-10,4.23-2.71,3.34-3,6.08-3,10.19v19.8h10V185.41c0-3.75.85-6.75,5.37-6.75h.47c4.52,0,5.36,3,5.36,6.75v18.31h10V185.41c0-3.75.84-6.75,5.36-6.75h.48c4.52,0,5.36,3,5.36,6.75Zm44.07-3.26c2.71-3.34,3-6.08,3-10.19v-19.8h-10v18.31c0,3.75-.84,6.75-5.36,6.75h-.48c-4.52,0-5.36-3-5.36-6.75V170.47h-10v19.8c0,4.11.3,6.85,3,10.19,2.37,2.87,6.38,4.09,10,4.23,0,0,1.31.08,2.6.08s2.6-.08,2.6-.08c3.62-.14,7.62-1.36,10-4.23m23.68-20.69h9.83c-.67-7-6.15-10.43-12.84-10.43-6.45,0-13,4-13,10.91,0,4.65,4,7.21,8,8.64,1.44.54,2.89,1,4.34,1.49,1.8.72,4.52,1.44,4.52,3.82,0,1.73-2,2.56-3.5,2.56a3.49,3.49,0,0,1-3.8-3h-9.94c.78,7.28,6.63,11,13.62,11,6.81,0,13.62-3.81,13.62-11.26,0-11.69-16.81-8.77-16.81-14,0-1.49,1.5-2.2,2.83-2.2,1.75,0,3.07.66,3.13,2.5" transform="translate(-14.17 -45.32)"/><polygon class="cls-2" points="10.82 187.87 10.82 181.67 4.94 181.67 4.94 187.87 2.86 187.87 2.86 173.62 4.94 173.62 4.94 179.76 10.82 179.76 10.82 173.62 12.89 173.62 12.89 187.87 10.82 187.87"/><path class="cls-2" d="M38.46,233.46a7.4,7.4,0,1,1,7.42-7.35,7.41,7.41,0,0,1-7.42,7.35m0-12.88a5.08,5.08,0,0,0-4.83,3.21,5.77,5.77,0,0,0-.5,2.28,6,6,0,0,0,.5,2.31,5.27,5.27,0,0,0,9.8-.35,5.47,5.47,0,0,0-5-7.45" transform="translate(-14.17 -45.32)"/><path class="cls-2" d="M59.49,232.77a7.62,7.62,0,0,1-3.11.69,7.4,7.4,0,1,1,6.38-10.94H60.33a5,5,0,0,0-3.89-1.94,5.49,5.49,0,0,0,0,11A5.26,5.26,0,0,0,61.37,228H54.73v-1.9h9a7.21,7.21,0,0,1-4.25,6.66" transform="translate(-14.17 -45.32)"/><polygon class="cls-2" points="53.24 187.87 53.24 173.62 60.92 173.62 60.92 175.52 55.32 175.52 55.32 179.72 60.92 179.72 60.92 181.63 55.32 181.63 55.32 185.96 60.92 185.96 60.92 187.87 53.24 187.87"/><path class="cls-2" d="M82.6,233.46A4.28,4.28,0,0,1,78.21,229h2.08a2.34,2.34,0,0,0,2.31,2.58,2.21,2.21,0,0,0,2.29-2.4c0-1.52-1.09-1.87-2.29-2.33-2.21-.85-4-1.5-4-4.28a3.9,3.9,0,0,1,4-3.87,3.83,3.83,0,0,1,4.08,4H84.6a1.91,1.91,0,0,0-2-2.06,2,2,0,0,0-1.9,1.94c0,3,6.27,1.22,6.27,6.63a4.16,4.16,0,0,1-4.37,4.31" transform="translate(-14.17 -45.32)"/><path class="cls-2" d="M101.45,222.58a5.12,5.12,0,0,0-4-2A5.35,5.35,0,0,0,92.15,226a5.45,5.45,0,0,0,5.26,5.52,5.22,5.22,0,0,0,3.89-1.88h2.56a7.35,7.35,0,0,1-6.47,3.79A7.43,7.43,0,0,1,90.07,226a7.31,7.31,0,0,1,7.34-7.34,7.6,7.6,0,0,1,4.35,1.39,7,7,0,0,1,2.19,2.52Z" transform="translate(-14.17 -45.32)"/><polygon class="cls-2" points="101.39 187.87 101.39 181.67 95.51 181.67 95.51 187.87 93.43 187.87 93.43 173.62 95.51 173.62 95.51 179.76 101.39 179.76 101.39 173.62 103.47 173.62 103.47 187.87 101.39 187.87"/><path class="cls-2" d="M129,233.46a7.4,7.4,0,1,1,7.42-7.35,7.41,7.41,0,0,1-7.42,7.35m0-12.88a5.08,5.08,0,0,0-4.83,3.21,5.77,5.77,0,0,0-.5,2.28,6,6,0,0,0,.5,2.31A5.27,5.27,0,0,0,134,228a5.47,5.47,0,0,0-5-7.45" transform="translate(-14.17 -45.32)"/><path class="cls-2" d="M147.09,233.46a7.4,7.4,0,1,1,7.41-7.35,7.41,7.41,0,0,1-7.41,7.35m0-12.88a5.07,5.07,0,0,0-4.83,3.21,5.77,5.77,0,0,0-.5,2.28,6,6,0,0,0,.5,2.31,5.27,5.27,0,0,0,9.8-.35,5.5,5.5,0,0,0-5-7.45" transform="translate(-14.17 -45.32)"/><polygon class="cls-2" points="144.37 187.87 144.37 173.62 146.45 173.62 146.45 185.96 151.4 185.96 151.4 187.87 144.37 187.87"/><path class="cls-2" d="M191.83,230.77c-.79,1.81-2.54,2.42-4.39,2.42h-4.26V218.94h3.7c1.81,0,3.46.62,4.16,2.39a4.44,4.44,0,0,1,.29,1.56,3.29,3.29,0,0,1-1.27,2.7,3.77,3.77,0,0,1,2.11,3.46,4.36,4.36,0,0,1-.34,1.72m-5-9.92h-1.58v4H187c1.34,0,2.29-.58,2.29-2s-1.08-2-2.41-2m2.75,6.8a2.56,2.56,0,0,0-2.33-.87h-2v4.51h2.25a2.32,2.32,0,0,0,2.58-2.24,2.28,2.28,0,0,0-.5-1.4" transform="translate(-14.17 -45.32)"/><path class="cls-2" d="M202.91,227.61a4.28,4.28,0,0,1-1.38.27l4,5.31h-2.6l-4.69-6.6h0v6.6H196.1V218.94h4.41a5.23,5.23,0,0,1,3.79,1.2,4.6,4.6,0,0,1,1.31,3.37,4,4,0,0,1-2.7,4.1m-2.54-6.76h-2.19v5.45h1.42c1.85,0,3.93-.52,3.93-2.79,0-1.81-1.5-2.66-3.16-2.66" transform="translate(-14.17 -45.32)"/><path class="cls-2" d="M217.56,232.25a5.19,5.19,0,0,1-6.66,0,4.71,4.71,0,0,1-1.44-3.66v-9.65h2.08v9.59c0,1.7.92,3,2.69,3s2.7-1.32,2.7-3v-9.59H219v9.65a4.72,4.72,0,0,1-1.45,3.66" transform="translate(-14.17 -45.32)"/><path class="cls-2" d="M227.11,233.46a4.28,4.28,0,0,1-4.39-4.49h2.08a2.34,2.34,0,0,0,2.31,2.58,2.22,2.22,0,0,0,2.29-2.4c0-1.52-1.1-1.87-2.29-2.33-2.21-.85-4-1.5-4-4.28a3.9,3.9,0,0,1,4-3.87,3.83,3.83,0,0,1,4.08,4h-2.08a1.91,1.91,0,0,0-2-2.06,2,2,0,0,0-1.91,1.94c0,3,6.28,1.22,6.28,6.63a4.16,4.16,0,0,1-4.37,4.31" transform="translate(-14.17 -45.32)"/><path class="cls-2" d="M239,233.46a4.28,4.28,0,0,1-4.39-4.49h2.08a2.34,2.34,0,0,0,2.31,2.58,2.22,2.22,0,0,0,2.29-2.4c0-1.52-1.1-1.87-2.29-2.33-2.22-.85-4-1.5-4-4.28a3.9,3.9,0,0,1,4-3.87,3.83,3.83,0,0,1,4.08,4H241a1.91,1.91,0,0,0-2-2.06,2,2,0,0,0-1.91,1.94c0,3,6.28,1.22,6.28,6.63a4.16,4.16,0,0,1-4.37,4.31" transform="translate(-14.17 -45.32)"/><polygon class="cls-2" points="233.05 187.87 233.05 173.62 240.73 173.62 240.73 175.52 235.13 175.52 235.13 179.72 240.73 179.72 240.73 181.63 235.13 181.63 235.13 185.96 240.73 185.96 240.73 187.87 233.05 187.87"/><polygon class="cls-2" points="245.06 187.87 245.06 173.62 247.14 173.62 247.14 185.96 252.09 185.96 252.09 187.87 245.06 187.87"/></svg>